<svg xmlns="http://www.w3.org/2000/svg" width="887" height="243" viewBox="0 0 887 243" role="img" aria-labelledby="title desc">
<title id="title">Kruntimes logo</title>
<desc id="desc">Blue hexagonal emblem with a white R and a light-blue lightning bolt, followed by the blue Kruntimes wordmark.</desc>
<defs>
<linearGradient id="gIcon" gradientUnits="userSpaceOnUse" x1="95" y1="24" x2="267" y2="222"><stop offset="0" stop-color="#2168f7"/><stop offset=".46" stop-color="#185ff1"/><stop offset="1" stop-color="#1558e9"/></linearGradient>
<linearGradient id="gText" gradientUnits="userSpaceOnUse" x1="331" y1="86" x2="831" y2="165"><stop offset="0" stop-color="#2167f6"/><stop offset=".5" stop-color="#185ff1"/><stop offset="1" stop-color="#1559ea"/></linearGradient>
<linearGradient id="gBolt" gradientUnits="userSpaceOnUse" x1="145" y1="67" x2="182" y2="181"><stop offset="0" stop-color="#aacbff"/><stop offset=".52" stop-color="#99bffb"/><stop offset="1" stop-color="#8db7f8"/></linearGradient>
<filter id="sIcon" x="-3%" y="-3%" width="106%" height="108%" color-interpolation-filters="sRGB"><feGaussianBlur in="SourceAlpha" stdDeviation=".35" result="b"/><feOffset in="b" dy=".35" result="o"/><feColorMatrix in="o" values="0 0 0 0 0 0 0 0 0 0 0 0 0 0 0 0 0 0 .1 0" result="s"/><feMerge><feMergeNode in="s"/><feMergeNode in="SourceGraphic"/></feMerge></filter>
<filter id="sMark" x="-4%" y="-4%" width="108%" height="110%" color-interpolation-filters="sRGB"><feGaussianBlur in="SourceAlpha" stdDeviation=".55" result="b"/><feOffset in="b" dy=".45" result="o"/><feColorMatrix in="o" values="0 0 0 0 0 0 0 0 0 0 0 0 0 0 0 0 0 0 .15 0" result="s"/><feMerge><feMergeNode in="s"/><feMergeNode in="SourceGraphic"/></feMerge></filter>
</defs>
<path d="M128.787 238.789C125.661 237.972 121.235 233.603 100.8 211.159C87.449 196.497 73.542 181.35 69.894 177.5C62.26 169.442 61 167.371 61 162.875C61 160.439 74.073 99.154 83.532 57.242C84.678 52.167 90.149 48.826 134.563 26.079C169.27 8.304 180.473 3 183.311 3C186.04 3 192.242 5.727 207.247 13.527C218.386 19.317 238.557 29.629 252.071 36.442C269.449 45.202 277.508 49.814 279.597 52.194C282.207 55.166 283.051 57.946 286.84 76.029C289.198 87.288 294.249 110.574 298.064 127.775C305.136 159.663 305.856 164.874 303.715 168.63C302.676 170.451 260.143 217.159 245.406 232.661C241.985 236.26 239.24 238.157 236.337 238.926C231.056 240.327 134.198 240.203 128.787 238.789Z" fill="url(#gIcon)" filter="url(#sIcon)"/>
<path d="M128 188.296C124.064 186.915 124 186.126 124 138.866L124 93.113L126.223 91.557C127.656 90.553 130.654 90 134.668 90L140.891 90L137.346 83.75C128.598 68.329 127.727 66.066 129.497 63.365L131.11 60.903L174.805 61.201L218.5 61.5L225.074 64.717C255.593 79.652 256.796 126.321 227.011 139.842L221.151 142.502L235.076 161.998C242.982 173.069 249 182.458 249 183.724C249 188.709 246.453 189.119 217.515 188.797L190.824 188.5L188.662 185.902C187.473 184.473 181.824 176.936 176.11 169.152C170.395 161.368 165.333 155 164.86 155C164.387 155 164 161.92 164 170.378C164 183.456 163.753 185.96 162.348 187.128C160.682 188.511 131.446 189.506 128 188.296ZM210.316 110.837C215.65 107.996 216.782 100.691 212.545 96.455C210.25 94.159 209.409 94 199.545 94C193.745 94 189 94.315 189 94.7C189 95.084 190.41 99.134 192.133 103.7L195.266 112L201.698 112C205.237 112 209.114 111.476 210.316 110.837Z" fill="#fff" fill-rule="evenodd" filter="url(#sMark)"/>
<path d="M184.829 171.705C181.16 166.642 167.322 147.729 154.079 129.675C140.836 111.621 130 96.433 130 95.925C130 95.416 134.486 95 139.969 95C147.621 95 149.824 94.705 149.449 93.729C149.181 93.03 146.047 86.842 142.485 79.979C138.922 73.116 136.006 67.152 136.004 66.727C136.002 66.303 144.132 66.078 154.072 66.227L172.143 66.5L180.437 89L188.73 111.5L178.365 111.784C172.664 111.94 168 112.197 168 112.355C168 112.513 173.624 127.685 180.498 146.071C187.373 164.457 192.998 179.838 192.998 180.25C193.003 182.29 190.925 180.117 184.829 171.705Z" fill="url(#gBolt)"/>
<path d="M452.24 162.89C443.561 158.594 442.013 153.581 442.006 129.75L442 112L449.934 112L457.868 112L458.184 128.922C458.489 145.246 458.586 145.936 460.924 148.422C463.618 151.286 468.104 151.821 472.528 149.805C477.236 147.66 478 144.551 478 127.55L478 112L486 112L494 112L494 138L494 164L486.5 164L479 164L479 160.845C479 157.891 478.887 157.792 477.232 159.29C471.063 164.873 459.586 166.526 452.24 162.89ZM580.5 163.119C572.112 159.268 570.105 154.301 570.044 137.25L570 125L565.5 125L561 125L561 118.5L561 112L565.45 112L569.9 112L570.2 106.278L570.5 100.555L578 98.429L585.5 96.302L585.79 104.151L586.081 112L594.54 112L603 112L603 118.5L603 125L594.392 125L585.784 125L586.148 136.47C586.441 145.678 586.854 148.282 588.243 149.671C590.068 151.496 595.967 152.046 599.587 150.728C601.458 150.047 601.807 150.526 602.968 155.367C603.68 158.336 603.963 161.251 603.595 161.846C601.54 165.171 586.746 165.987 580.5 163.119ZM746.882 163.619C733.897 158.979 727.802 148.901 729.285 134.523C730.686 120.952 741.696 111.032 755.384 111.01C771.359 110.983 781 120.526 781 136.366L781 142L763 142C743.426 142 743.067 142.12 746.581 147.483C750.305 153.168 762.37 154.402 771.028 149.986L774.766 148.079L776.932 153.289L779.098 158.5L776.95 160.241C771.606 164.57 754.821 166.456 746.882 163.619ZM766 130.423C766 129.556 764.685 127.531 763.077 125.923C758.755 121.601 753.012 121.788 748.4 126.4C743.207 131.593 743.723 132 755.5 132C764.394 132 766 131.759 766 130.423ZM796.5 163.601C794.3 162.905 791.037 161.573 789.248 160.641C785.689 158.786 785.667 159.096 790.004 149.821L791.257 147.141L795.303 149.821C802.964 154.893 819.252 152.823 813.887 147.459C813.019 146.59 809.1 145.055 805.178 144.046C792.26 140.723 787.566 136.428 787.693 128.047C787.86 116.982 796.656 110.499 810.5 111.24C818.913 111.69 829 115.101 829 117.496C829 118.183 828.085 120.813 826.968 123.34L824.935 127.934L820.815 125.787C814.919 122.713 807.029 122.206 804.724 124.752C802.006 127.756 803.569 129.829 809.858 131.558C824.237 135.51 828.324 138.013 830.105 143.957C832.428 151.711 828.55 159.483 820.541 163.12C815.729 165.306 802.715 165.567 796.5 163.601ZM331 126.54L331 89L339.475 89L347.95 89L348.225 104.815L348.5 120.63L360.5 106.257C376.366 87.253 374.005 88.872 385.342 89.212L394.943 89.5L379.972 106.904C371.737 116.476 365 124.505 365 124.745C365 124.986 371.639 133.129 379.754 142.841C387.869 152.554 395.124 161.287 395.877 162.25C397.161 163.893 396.595 164 386.647 164L376.048 164L364.838 150.437C358.673 142.977 353.086 136.132 352.422 135.225C351.414 133.846 350.957 133.79 349.636 134.887C348.364 135.943 348.001 138.865 347.778 149.85L347.5 163.5L339.25 163.79L331 164.081L331 126.54ZM401 138L401 112L408.5 112L416 112L416 115.606L416 119.212L418.811 116.203C421.933 112.86 427.961 110.643 432.518 111.161C435.49 111.499 435.501 111.524 435.794 118.75L436.088 126L430.994 126C428.193 126 424.6 126.672 423.011 127.494C417.467 130.361 417 132.011 417 148.723L417 164L409 164L401 164L401 138ZM504 138L504 112L511.5 112C518.833 112 519 112.056 519 114.5C519 117.085 520.369 117.83 521.564 115.896C522.981 113.604 530.598 111.044 536 111.044C543.505 111.044 549.158 113.772 552.684 119.095L555.5 123.347L555.824 143.674L556.147 164L548.074 164L540 164L540 147.95C540 129.558 539.248 126.897 533.511 125.004C530.539 124.023 529.404 124.127 526.252 125.67C520.588 128.444 520.031 130.458 520.015 148.25L520 164L512 164L504 164L504 138ZM612 138L612 112L620 112L628 112L628 138L628 164L620 164L612 164L612 138ZM638 137.958L638 111.916L645.708 112.208C652.993 112.484 653.448 112.637 654.001 114.99C654.43 116.82 654.805 117.124 655.416 116.136C656.851 113.813 664.306 111.045 669.185 111.022C675.175 110.994 678.697 112.349 682.718 116.226C685.41 118.823 686.038 119.066 686.558 117.71C686.9 116.819 689.478 114.944 692.286 113.545C704.383 107.516 719.277 113.205 721.699 124.779C722.127 126.826 722.482 136.375 722.489 146L722.5 163.5L714.25 163.79L706 164.081L706 146.763C706 127.905 705.481 125.839 700.423 124.57C698.979 124.208 696.261 124.419 694.382 125.039C688.766 126.892 688 129.643 688 147.95L688 164L680 164L672 164L672 147.223C672 133.458 671.713 130.035 670.399 128.159C668.085 124.855 664.4 123.713 660.359 125.047C654.442 126.999 654 128.54 654 147.223L654 164L646 164L638 164L638 137.958ZM613.646 101.548C609.383 97.597 610.518 89.452 615.657 87.11C619.734 85.253 622.97 85.816 626.077 88.923C634.28 97.126 622.158 109.437 613.646 101.548Z" fill="url(#gText)" fill-rule="evenodd"/>
</svg>
